# File created by Blade
# Date/Time:  Wed Jan 21 18:40:15 2015
#---------------------------------------------------------
:version 1.10
:name HOM
:units
  mass 1.0
  length 1.000000
  angle deg
:documentation
     Acclaim Skeleton File
:root
   axis xyz
   order TX TY TZ RX RY RZ
   position 0.000000 0.000000 0.000000
   orientation 0 0 0
:bonedata
   begin
      id 1
      name RightUpLeg_dum
      direction -1.000000 0.000000 0.000000
      length 3.693983
      axis 0.0 0.0 0.0 xyz
   end
   begin
      id 2
      name LeftUpLeg_dum
      direction 1.000000 0.000000 0.000000
      length 3.693983
      axis 0.0 0.0 0.0 xyz
   end
   begin
      id 3
      name Spine_dum
      direction 0.000000 1.000000 0.000000
      length 2.392956
      axis 0.0 0.0 0.0 xyz
   end
   begin
      id 4
      name RightUpLeg
      direction 0.000000 -1.000000 0.000000
      length 15.795667
      axis 0.0 0.0 0.0 xyz
      dof rx ry rz
   end
   begin
      id 5
      name RightLeg
      direction 0.000000 -1.000000 0.000000
      length 14.766989
      axis 0.0 0.0 0.0 xyz
      dof rx ry rz
   end
   begin
      id 6
      name RightFoot
      direction 0.000000 -0.258819 0.965926
      length 4.962790
      axis 15.0 0.0 0.0 xyz
      dof rx ry rz
   end
   begin
      id 7
      name RightToeBase
      direction 0.000000 0.000000 1.000000
      length 2.952750
      axis 0.0 0.0 0.0 xyz
      dof rx ry rz
   end
   begin
      id 8
      name LeftUpLeg
      direction 0.000000 -1.000000 0.000000
      length 15.795667
      axis 0.0 0.0 0.0 xyz
      dof rx ry rz
   end
   begin
      id 9
      name LeftLeg
      direction 0.000000 -1.000000 0.000000
      length 14.766989
      axis 0.0 0.0 0.0 xyz
      dof rx ry rz
   end
   begin
      id 10
      name LeftFoot
      direction 0.000000 -0.258819 0.965926
      length 4.962790
      axis 15.0 0.0 0.0 xyz
      dof rx ry rz
   end
   begin
      id 11
      name LeftToeBase
      direction 0.000000 0.000000 1.000000
      length 2.952750
      axis 0.0 0.0 0.0 xyz
      dof rx ry rz
   end
   begin
      id 12
      name Spine
      direction 0.000000 1.000000 0.000000
      length 0.000000
      axis 0.0 0.0 0.0 xyz
      dof rx ry rz
   end
   begin
      id 13
      name Spine_dum1
      direction 0.000000 1.000000 0.000000
      length 13.207411
      axis 0.0 0.0 0.0 xyz
   end
   begin
      id 14
      name Spine_dum2
      direction 0.000000 1.000000 0.000000
      length 13.207411
      axis 0.0 0.0 0.0 xyz
   end
   begin
      id 15
      name Spine_dum3
      direction 0.000000 1.000000 0.000000
      length 19.250100
      axis 0.0 0.0 0.0 xyz
   end
   begin
      id 16
      name RightShoulder
      direction -1.000000 0.000000 0.000000
      length 8.140465
      axis 0.0 0.0 90.0 xyz
      dof rx ry rz
   end
   begin
      id 17
      name RightArm
      direction -1.000000 0.000000 0.000000
      length 10.649840
      axis 0.0 0.0 90.0 xyz
      dof rx ry rz
   end
   begin
      id 18
      name RightForeArm
      direction -1.000000 0.000000 0.000000
      length 8.304624
      axis 0.0 0.0 90.0 xyz
      dof ry rz rx
   end
   begin
      id 19
      name RightHand
      direction -1.000000 0.000000 0.000000
      length 0.000000
      axis 0.0 0.0 90.0 xyz
      dof rx ry rz
   end
   begin
      id 20
      name RightHand_dum1
      direction -1.000000 0.000000 0.000000
      length 3.937000
      axis 0.0 0.0 90.0 xyz
   end
   begin
      id 21
      name RightHand_dum2
      direction 0.000000 0.000000 0.000000
      length 0.000000
      axis 0.0 0.0 90.0 xyz
   end
   begin
      id 22
      name RightHandThumb1
      direction 0.000000 0.000000 1.000000
      length 3.937000
      axis 0.0 0.0 90.0 xyz
      dof rx rz ry
   end
   begin
      id 23
      name LeftShoulder
      direction 1.000000 0.000000 0.000000
      length 8.140465
      axis 0.0 0.0 -90.0 xyz
      dof rx ry rz
   end
   begin
      id 24
      name LeftArm
      direction 1.000000 0.000000 0.000000
      length 10.649840
      axis 0.0 0.0 -90.0 xyz
      dof rx ry rz
   end
   begin
      id 25
      name LeftForeArm
      direction 1.000000 0.000000 0.000000
      length 8.304624
      axis 0.0 0.0 -90.0 xyz
      dof ry rz rx
   end
   begin
      id 26
      name LeftHand
      direction 1.000000 0.000000 0.000000
      length 0.000000
      axis 0.0 0.0 -90.0 xyz
      dof rx ry rz
   end
   begin
      id 27
      name LeftHand_dum1
      direction 1.000000 0.000000 0.000000
      length 3.937000
      axis 0.0 0.0 -90.0 xyz
   end
   begin
      id 28
      name LeftHand_dum2
      direction 0.000000 0.000000 0.000000
      length 0.000000
      axis 0.0 0.0 -90.0 xyz
   end
   begin
      id 29
      name LeftHandThumb1
      direction 0.000000 0.000000 1.000000
      length 3.937000
      axis 0.0 0.0 -90.0 xyz
      dof rx rz ry
   end
   begin
      id 30
      name Head
      direction 0.000000 1.000000 0.000000
      length 4.527550
      axis 0.0 0.0 0.0 xyz
      dof rx ry rz
   end
:hierarchy
   begin
      root RightUpLeg_dum LeftUpLeg_dum Spine_dum
      RightUpLeg_dum RightUpLeg
      LeftUpLeg_dum LeftUpLeg
      Spine_dum Spine
      RightUpLeg RightLeg
      RightLeg RightFoot
      RightFoot RightToeBase
      LeftUpLeg LeftLeg
      LeftLeg LeftFoot
      LeftFoot LeftToeBase
      Spine Spine_dum1 Spine_dum2 Spine_dum3
      Spine_dum1 RightShoulder
      Spine_dum2 LeftShoulder
      Spine_dum3 Head
      RightShoulder RightArm
      RightArm RightForeArm
      RightForeArm RightHand
      RightHand RightHand_dum1 RightHand_dum2
      RightHand_dum2 RightHandThumb1
      LeftShoulder LeftArm
      LeftArm LeftForeArm
      LeftForeArm LeftHand
      LeftHand LeftHand_dum1 LeftHand_dum2
      LeftHand_dum2 LeftHandThumb1
   end

# File created by Blade
# Date/Time:  Wed Jan 21 18:40:08 2015
# Frame Rate: 120.000 fps
#------------------------------------------------------
:FULLY-SPECIFIED
:DEGREES
1521
root 0.660171 28.312185 -10.016057 136.582504 -32.315304 0.462917
RightUpLeg -159.400932 -18.782897 15.541506
RightLeg 0.485597 -0.000000 -0.000000
RightFoot 10.933697 1.925043 46.067118
RightToeBase 18.997377 -0.000000 -0.000000
LeftUpLeg -121.958053 -4.477381 -46.976808
LeftLeg -13.081605 -0.000000 0.000000
LeftFoot 3.560692 1.704470 -23.925650
LeftToeBase 7.096527 -0.000000 -0.000000
Spine -45.310996 -61.170405 59.146166
RightShoulder -32.861755 -15.545965 -44.274435
RightArm -31.093053 -26.835686 72.766143
RightForeArm 2.388963 0.000000 -17.592205
RightHand 11.045746 -0.000000 1.655244
RightHandThumb1 -24.326973 -0.000000 -32.862282
LeftShoulder -1.390128 -11.287666 55.936558
LeftArm 54.183605 24.000094 -9.589526
LeftForeArm 32.695817 -0.000000 11.404917
LeftHand -19.403291 -0.000000 31.412737
LeftHandThumb1 -26.253704 0.000000 33.147579
Head -28.482401 -56.138777 40.404348
1522
root 0.663129 28.311772 -10.024779 136.593429 -32.275060 0.476428
RightUpLeg -159.405582 -18.792730 15.561747
RightLeg 0.453892 -0.000000 -0.000000
RightFoot 10.930172 1.899857 46.015427
RightToeBase 18.954771 -0.000000 -0.000000
LeftUpLeg -122.006082 -4.504463 -46.960195
LeftLeg -13.077892 -0.000000 0.000000
LeftFoot 3.571935 1.682049 -23.945622
LeftToeBase 7.123861 -0.000000 -0.000000
Spine -45.355499 -61.168943 59.196842
RightShoulder -32.842228 -15.561382 -44.274372
RightArm -31.091377 -26.685600 72.718708
RightForeArm 2.427639 -0.000000 -17.495066
RightHand 10.979136 -0.000000 1.506318
RightHandThumb1 -24.326973 -0.000000 -32.862282
LeftShoulder -1.368049 -11.317230 55.940497
LeftArm 54.188792 24.049656 -9.553040
LeftForeArm 32.490695 -0.000000 11.354452
LeftHand -19.412862 -0.000000 31.711616
LeftHandThumb1 -26.253704 0.000000 33.147579
Head -28.496097 -56.132498 40.375746
1523
root 0.665686 28.310902 -10.032904 136.599593 -32.243745 0.477860
RightUpLeg -159.405800 -18.812629 15.563245
RightLeg 0.444888 -0.000000 -0.000000
RightFoot 10.902797 1.826070 46.069259
RightToeBase 19.073417 -0.000000 -0.000000
LeftUpLeg -122.042283 -4.550455 -47.001016
LeftLeg -13.075678 -0.000000 0.000000
LeftFoot 3.610029 1.606071 -23.952722
LeftToeBase 7.121657 -0.000000 -0.000000
Spine -45.369643 -61.173287 59.224179
RightShoulder -32.846002 -15.531258 -44.266904
RightArm -31.157680 -26.689962 72.767625
RightForeArm 2.422040 0.000000 -17.410124
RightHand 10.961997 -0.000000 1.569008
RightHandThumb1 -24.326973 -0.000000 -32.862282
LeftShoulder -1.399602 -11.356415 55.967600
LeftArm 54.215314 24.086007 -9.569944
LeftForeArm 32.249608 -0.000000 11.248290
LeftHand -19.238075 -0.000000 31.878984
LeftHandThumb1 -26.253704 0.000000 33.147579
Head -28.626302 -56.090856 40.435271
1524
root 0.667646 28.309517 -10.042557 136.604475 -32.178139 0.485895
RightUpLeg -159.410912 -18.779725 15.599722
RightLeg 0.448236 -0.000000 -0.000000
RightFoot 10.873338 1.834819 45.994864
RightToeBase 18.996967 -0.000000 -0.000000
LeftUpLeg -122.149448 -4.561960 -46.995416
LeftLeg -12.971926 -0.000000 0.000000
LeftFoot 3.570389 1.478118 -24.040413
LeftToeBase 7.179196 -0.000000 -0.000000
Spine -45.351770 -61.161288 59.238139
RightShoulder -32.875873 -15.520052 -44.299410
RightArm -31.172637 -26.779511 72.891561
RightForeArm 2.567038 0.000000 -17.423681
RightHand 11.016810 -0.000000 1.518918
RightHandThumb1 -24.326973 -0.000000 -32.862282
LeftShoulder -1.401864 -11.375362 55.960171
LeftArm 54.224368 24.073887 -9.573837
LeftForeArm 32.156765 -0.000000 11.195943
LeftHand -19.188324 -0.000000 31.946290
LeftHandThumb1 -26.253704 0.000000 33.147579
Head -28.675939 -56.084098 40.449000
1525
root 0.667182 28.309830 -10.053591 136.616183 -32.141466 0.486129
RightUpLeg -159.439138 -18.767020 15.608441
RightLeg 0.484947 -0.000000 -0.000000
RightFoot 10.844675 1.810370 46.049741
RightToeBase 19.098656 -0.000000 -0.000000
LeftUpLeg -122.183853 -4.499163 -46.889750
LeftLeg -13.017115 -0.000000 0.000000
LeftFoot 3.582151 1.601627 -24.054794
LeftToeBase 7.182605 -0.000000 -0.000000
Spine -45.369618 -61.154691 59.248770
RightShoulder -32.859451 -15.552775 -44.261657
RightArm -31.205045 -26.781458 72.970825
RightForeArm 2.694376 0.000000 -17.357553
RightHand 11.043355 0.000000 1.645425
RightHandThumb1 -24.326973 -0.000000 -32.862282
LeftShoulder -1.384217 -11.462725 55.973128
LeftArm 54.173858 24.136121 -9.645408
LeftForeArm 32.211458 -0.000000 11.201271
LeftHand -19.336087 -0.000000 31.931937
LeftHandThumb1 -26.253704 0.000000 33.147579
Head -28.706621 -56.113399 40.450142
1526
root 0.668455 28.309131 -10.063097 136.625979 -32.102221 0.480765
RightUpLeg -159.448685 -18.724171 15.625164
RightLeg 0.486767 -0.000000 -0.000000
RightFoot 10.860589 1.810602 46.013750
RightToeBase 18.920995 -0.000000 -0.000000
LeftUpLeg -122.233847 -4.458493 -46.831329
LeftLeg -13.020028 -0.000000 0.000000
LeftFoot 3.566931 1.638984 -24.078591
LeftToeBase 7.209936 -0.000000 -0.000000
Spine -45.385688 -61.153677 59.264670
RightShoulder -32.850475 -15.556721 -44.293184
RightArm -31.160469 -26.642886 72.919901
RightForeArm 2.428999 -0.000000 -17.301541
RightHand 10.959374 -0.000000 1.757750
RightHandThumb1 -24.326973 -0.000000 -32.862282
LeftShoulder -1.364514 -11.515821 55.975546
LeftArm 54.125091 24.160042 -9.727548
LeftForeArm 32.214581 -0.000000 11.166177
LeftHand -19.297845 0.000000 32.027486
LeftHandThumb1 -26.253704 0.000000 33.147579
Head -28.716549 -56.161555 40.433863
1527
root 0.670084 28.307430 -10.072655 136.625890 -32.075541 0.480424
RightUpLeg -159.466043 -18.701667 15.641506
RightLeg 0.508320 -0.000000 -0.000000
RightFoot 10.856561 1.801878 46.026678
RightToeBase 18.993703 -0.000000 -0.000000
LeftUpLeg -122.273060 -4.445234 -46.815565
LeftLeg -13.009599 -0.000000 0.000000
LeftFoot 3.568841 1.613427 -24.103104
LeftToeBase 7.206078 -0.000000 -0.000000
Spine -45.411039 -61.168214 59.278661
RightShoulder -32.845431 -15.526534 -44.307052
RightArm -31.167304 -26.627086 72.949721
RightForeArm 2.453132 -0.000000 -17.303329
RightHand 10.953209 -0.000000 2.050284
RightHandThumb1 -24.326973 -0.000000 -32.862282
LeftShoulder -1.343187 -11.511365 55.996709
LeftArm 54.101506 24.118551 -9.837851
LeftForeArm 32.270266 -0.000000 11.097160
LeftHand -19.349805 -0.000000 32.024376
LeftHandThumb1 -26.253704 0.000000 33.147579
Head -28.697863 -56.218302 40.425434
1528
root 0.671734 28.305802 -10.082440 136.621010 -32.043254 0.476184
RightUpLeg -159.467921 -18.677372 15.652681
RightLeg 0.516979 -0.000000 -0.000000
RightFoot 10.852938 1.799318 46.006553
RightToeBase 19.002596 -0.000000 -0.000000
LeftUpLeg -122.349033 -4.491019 -46.890173
LeftLeg -12.911351 -0.000000 0.000000
LeftFoot 3.579350 1.428348 -24.118759
LeftToeBase 7.206090 -0.000000 -0.000000
Spine -45.418294 -61.181137 59.274771
RightShoulder -32.841330 -15.519424 -44.311149
RightArm -31.162949 -26.534374 72.940807
RightForeArm 2.452265 -0.000000 -17.256294
RightHand 10.947282 0.000000 1.970403
RightHandThumb1 -24.326973 -0.000000 -32.862282
LeftShoulder -1.319706 -11.483337 55.977885
LeftArm 54.078613 24.014086 -9.931342
LeftForeArm 32.287910 -0.000000 11.044867
LeftHand -19.324077 0.000000 31.998319
LeftHandThumb1 -26.253704 0.000000 33.147579
Head -28.645153 -56.255297 40.379356
1529
root 0.672680 28.302977 -10.090493 136.625171 -32.026525 0.459051
RightUpLeg -159.455345 -18.660487 15.646577
RightLeg 0.488352 -0.000000 -0.000000
RightFoot 10.876490 1.783511 46.007783
RightToeBase 18.966316 -0.000000 -0.000000
LeftUpLeg -122.370785 -4.523922 -46.954385
LeftLeg -12.921719 -0.000000 0.000000
LeftFoot 3.602019 1.406917 -24.089872
LeftToeBase 7.189908 -0.000000 -0.000000
Spine -45.422059 -61.197867 59.255671
RightShoulder -32.850593 -15.474372 -44.304991
RightArm -31.177032 -26.451433 72.909470
RightForeArm 2.380353 0.000000 -17.211183
RightHand 10.882576 -0.000000 1.850402
RightHandThumb1 -24.326973 -0.000000 -32.862282
LeftShoulder -1.375075 -11.553405 55.943493
LeftArm 54.235353 24.081143 -9.808439
LeftForeArm 32.172172 -0.000000 10.920949
LeftHand -19.289289 0.000000 31.926139
LeftHandThumb1 -26.253704 0.000000 33.147579
Head -28.616690 -56.280392 40.385535
1530
root 0.672686 28.301365 -10.101199 136.625606 -32.005497 0.449387
RightUpLeg -159.458320 -18.652509 15.640723
RightLeg 0.491662 -0.000000 -0.000000
RightFoot 10.893578 1.774989 46.032880
RightToeBase 18.956593 -0.000000 -0.000000
LeftUpLeg -122.423583 -4.462502 -46.904138
LeftLeg -12.887149 -0.000000 0.000000
LeftFoot 3.576208 1.451426 -24.095538
LeftToeBase 7.150689 -0.000000 -0.000000
Spine -45.424759 -61.216558 59.227606
RightShoulder -32.845777 -15.439946 -44.298277
RightArm -31.172123 -26.348677 72.842216
RightForeArm 2.398706 -0.000000 -17.180449
RightHand 10.844256 -0.000000 2.005852
RightHandThumb1 -24.326973 -0.000000 -32.862282
LeftShoulder -1.387392 -11.602925 55.940048
LeftArm 54.375124 24.192551 -9.625712
LeftForeArm 31.909043 -0.000000 10.823493
LeftHand -19.264224 -0.000000 31.832218
LeftHandThumb1 -26.253704 0.000000 33.147579
Head -28.560198 -56.292838 40.389008
